<svg xmlns="http://www.w3.org/2000/svg" xmlns:xlink="http://www.w3.org/1999/xlink" viewBox="0 0 1986 529.791">
  <defs>
    <style>
      .cls-1 {
        opacity: 0.95;
        fill: url(#linear-gradient);
      }
    </style>
    <linearGradient id="linear-gradient" x1="0.5" x2="0.5" y2="1" gradientUnits="objectBoundingBox">
      <stop offset="0" stop-color="#96d9fc"/>
      <stop offset="1" stop-color="#96d9fc"/>
    </linearGradient>
  </defs>
  <path id="Union_2" data-name="Union 2" class="cls-1" d="M1553.634,396.755a133.856,133.856,0,0,1,2.035-23.306,74.589,74.589,0,0,1-12.7-2.169,112.292,112.292,0,0,1-200.2,5.831,133.091,133.091,0,0,1-240.974,8.351,70.752,70.752,0,0,1-78.885-17.383A91.48,91.48,0,0,1,874.983,353.3a47.677,47.677,0,0,1-66.579-2.189,166.828,166.828,0,0,1-224.925-7.356,47.678,47.678,0,0,1-62.659.584,70.866,70.866,0,0,1-118.941-.871,109.869,109.869,0,0,1-151.841,31.914,74.864,74.864,0,0,1-139.326-5.639,86.843,86.843,0,0,1-24.38,3.47C38.652,373.218,0,334.79,0,287.386c0-42.911,31.669-78.467,73.04-84.822A91.551,91.551,0,0,1,183.623,118.44,99.8,99.8,0,0,1,360.58,81.477,74.93,74.93,0,0,1,436,73.006a133.315,133.315,0,0,1,116.87-27.8A95.654,95.654,0,0,1,722.5,59.027,167.013,167.013,0,0,1,855.461,163.793a70.73,70.73,0,0,1,97.695,52.4c.366,0,.728-.006,1.095-.006a91.433,91.433,0,0,1,79.581,46.348,70.756,70.756,0,0,1,72.281-5.8,133.226,133.226,0,0,1,156.179-58.016,91.5,91.5,0,0,1,171.563,12.742q3.734-.247,7.53-.249a111.835,111.835,0,0,1,74.74,28.5A74.858,74.858,0,0,1,1632.9,275.032a133.228,133.228,0,0,1,130.327,12.911,108.353,108.353,0,0,1,92.434-9.784,66.527,66.527,0,1,1,70.8,84.974A108.177,108.177,0,0,1,1787.64,483.381a133.038,133.038,0,0,1-234.006-86.626Z"/>
</svg>
